<svg xmlns="http://www.w3.org/2000/svg" viewBox="0 0 128.01 128.03"><g data-name="Layer 2"><path d="M80.33 83.88C63.86 64.37 18 80.41 9.47 23.46 3.64 31.5.1 42.06 0 55.81c-.36 52.93 49.49 48.94 63.62 49 31.19.25 11.84 23.19 11.84 23.19S98 104.74 80.33 83.88z" fill="#4479c2"/><path d="M88.46 55.31C66.73 27.3 59.17 18.23 56.55.73 37.84 2.69 20 9 9.47 23.46c8.49 57 54.39 40.91 70.86 60.42C98 104.74 75.46 128 75.46 128s41.04-36.54 13-72.69z" fill="#4d89dc"/><path d="M128 55.25C128.27 17.23 95.59.16 72.07 0a139.22 139.22 0 00-15.52.73c2.62 17.5 10.18 26.57 31.91 54.58 28 36.15-13 72.72-13 72.72s52.18-18.89 52.54-72.78z" fill="#5496f0"/></g></svg>