<svg xmlns="http://www.w3.org/2000/svg" viewBox="0 0 128.01 128.03"><defs><style>.cls-1{fill:#4479c2;}.cls-2{fill:#4d89dc;}.cls-3{fill:#5496f0;}</style></defs><title>Asset 1</title><g id="Layer_2" data-name="Layer 2"><g id="Logo"><path class="cls-1" d="M80.33,83.88C63.86,64.37,18,80.41,9.47,23.46,3.64,31.5.1,42.06,0,55.81c-.36,52.93,49.49,48.94,63.62,49C94.81,105.06,75.46,128,75.46,128S98,104.74,80.33,83.88Z"/><path class="cls-2" d="M88.46,55.31C66.73,27.3,59.17,18.23,56.55.73,37.84,2.69,20,9,9.47,23.46c8.49,57,54.39,40.91,70.86,60.42C98,104.74,75.46,128,75.46,128S116.5,91.46,88.46,55.31Z"/><path class="cls-3" d="M128,55.25C128.27,17.23,95.59.16,72.07,0A139.22,139.22,0,0,0,56.55.73c2.62,17.5,10.18,26.57,31.91,54.58,28,36.15-13,72.72-13,72.72S127.64,109.14,128,55.25Z"/></g></g></svg>