<?xml version="1.0" standalone="no"?>
<!DOCTYPE svg PUBLIC "-//W3C//DTD SVG 20010904//EN"
 "http://www.w3.org/TR/2001/REC-SVG-20010904/DTD/svg10.dtd">
<svg version="1.0" xmlns="http://www.w3.org/2000/svg"
 width="1001.000000pt" height="1001.000000pt" viewBox="0 0 1001.000000 1001.000000"
 preserveAspectRatio="xMidYMid meet">
<metadata>
Created by potrace 1.14, written by Peter Selinger 2001-2017
</metadata>
<g transform="translate(0.000000,1001.000000) scale(0.100000,-0.100000)"
fill="#000000" stroke="none">
<path d="M5078 10005 c-2 -2 -61 -6 -133 -9 -71 -4 -152 -9 -180 -11 -27 -2
-88 -7 -135 -10 -47 -3 -96 -8 -110 -10 -14 -2 -56 -6 -95 -10 -38 -3 -81 -8
-95 -10 -14 -2 -52 -6 -85 -10 -32 -4 -66 -8 -75 -10 -8 -1 -37 -6 -65 -9 -27
-4 -75 -11 -105 -16 -30 -5 -73 -12 -95 -15 -23 -3 -52 -8 -65 -10 -14 -3 -41
-8 -60 -11 -19 -3 -42 -7 -50 -9 -8 -3 -33 -7 -55 -11 -22 -3 -69 -13 -105
-21 -36 -8 -78 -17 -95 -20 -101 -17 -463 -118 -660 -185 -1147 -388 -1941
-1042 -2394 -1973 -149 -306 -276 -700 -335 -1040 -9 -49 -18 -101 -21 -115
-3 -14 -8 -45 -11 -70 -3 -25 -7 -55 -9 -68 -2 -13 -7 -53 -11 -90 -3 -37 -8
-78 -10 -92 -26 -205 -26 -957 0 -1120 3 -14 7 -56 11 -93 3 -37 8 -76 9 -85
2 -9 7 -39 10 -67 43 -305 123 -607 246 -925 51 -130 177 -372 267 -512 47
-73 163 -230 222 -298 66 -78 269 -281 330 -330 24 -19 48 -39 55 -45 70 -62
241 -180 374 -259 374 -224 909 -415 1397 -501 17 -2 41 -7 55 -10 26 -5 93
-16 125 -20 11 -2 56 -8 100 -14 139 -20 149 -22 200 -26 28 -3 70 -7 95 -10
104 -11 242 -20 460 -31 63 -3 367 -7 675 -9 517 -3 597 -5 725 -20 296 -35
534 -109 692 -216 105 -71 209 -192 233 -269 4 -14 11 -29 15 -35 4 -5 13 -37
20 -69 28 -137 18 -284 -31 -450 -46 -155 -158 -382 -272 -550 -22 -34 -62
-90 -89 -125 -26 -35 -47 -66 -45 -68 4 -3 48 14 124 48 23 10 44 19 47 19 21
0 501 241 601 302 17 10 39 22 50 28 11 5 37 20 57 32 20 13 74 45 120 72 178
105 635 422 773 537 11 9 63 52 115 94 52 43 100 83 105 89 6 6 44 40 85 76
451 393 901 928 1208 1436 107 177 227 407 301 571 27 61 56 126 64 145 110
241 282 797 331 1068 2 14 11 63 20 110 17 94 22 124 31 190 3 25 8 56 10 70
5 28 11 76 20 165 3 33 8 78 10 100 27 256 27 943 0 1080 -2 11 -7 44 -10 73
-11 105 -28 207 -61 367 -22 106 -37 167 -74 300 -77 275 -243 665 -376 880
-13 22 -27 47 -31 55 -4 8 -47 75 -96 148 -272 407 -611 756 -1022 1053 -470
340 -1049 607 -1635 754 -117 30 -113 29 -230 51 -47 9 -94 18 -105 20 -11 3
-52 9 -92 15 -39 5 -80 12 -91 14 -10 2 -55 6 -98 10 -43 4 -88 10 -99 13 -20
5 -871 12 -877 7z"/>
</g>
</svg>
